# xmcd
# 
# Track frame offsets:
#     150
#     20135
#     44125
#     63249
#     91523
#     120499
#     146425
#     170281
#     199228
#     222236
#     251613
#     284475
# 
# Disc length: 4014
# 
# Revision: 1
# Processed by: cddbd v1.5.2PL0 Copyright (c) Steve Scherf et al.
# Submitted via: fre:ac v1.0.27
# 
DISCID=b00fac0c
DTITLE=Henrik Freischlader - Openness
DYEAR=2016
DGENRE=Blues Rock
TTITLE0=Openness
TTITLE1=Early Morning Blues
TTITLE2=Lord Have Mercy
TTITLE3=Business Straight
TTITLE4=Master Plan
TTITLE5=Never Really Left You
TTITLE6=Nobody Else to Blame
TTITLE7=Senses
TTITLE8=Techno
TTITLE9=Today I'm Gonna Change
TTITLE10=High Expectations
TTITLE11=His Love
EXTD=
EXTT0=
EXTT1=
EXTT2=
EXTT3=
EXTT4=
EXTT5=
EXTT6=
EXTT7=
EXTT8=
EXTT9=
EXTT10=
EXTT11=
PLAYORDER=
